<svg xmlns="http://www.w3.org/2000/svg" width="122" height="122" viewBox="0 0 122 122"><circle fill="#FFF" cx="61" cy="60.5" r="60"/><path fill-rule="evenodd" clip-rule="evenodd" d="M61 .5C27.867.5 1 27.353 1 60.48c0 26.502 17.192 48.983 41.032 56.916 2.998.555 4.1-1.301 4.1-2.887 0-1.43-.056-6.155-.082-11.166-16.692 3.628-20.214-7.077-20.214-7.077-2.729-6.934-6.662-8.776-6.662-8.776-5.444-3.723.41-3.646.41-3.646 6.025.423 9.198 6.183 9.198 6.183 5.351 9.168 14.036 6.518 17.46 4.985.539-3.876 2.093-6.524 3.81-8.021-13.327-1.516-27.337-6.66-27.337-29.643 0-6.549 2.344-11.899 6.183-16.1-.623-1.511-2.677-7.612.582-15.874 0 0 5.039-1.611 16.503 6.148 4.787-1.329 9.919-1.995 15.019-2.019 5.098.023 10.234.689 15.03 2.019 11.453-7.76 16.483-6.148 16.483-6.148 3.266 8.262 1.213 14.362.59 15.874 3.846 4.2 6.175 9.551 6.175 16.1 0 23.039-14.036 28.109-27.397 29.596 2.152 1.86 4.069 5.512 4.069 11.106 0 8.025-.069 14.485-.069 16.46 0 1.597 1.081 3.467 4.121 2.879C103.829 109.449 121 86.973 121 60.48 121 27.353 94.136.5 61 .5z"/><path d="M23.725 86.619c-.132.299-.602.389-1.029.183-.436-.195-.679-.602-.539-.9.129-.307.599-.392 1.034-.188.436.195.684.606.534.905zm-.739-.547M26.156 89.33c-.287.264-.846.142-1.226-.278-.393-.419-.466-.978-.176-1.247.295-.265.837-.14 1.23.277.394.423.471.978.172 1.248zm-.573-.615M28.521 92.783c-.368.256-.969.018-1.341-.517-.368-.533-.368-1.174.009-1.43.372-.257.964-.025 1.341.502.366.545.366 1.184-.009 1.445zm0 0M31.762 96.122c-.329.361-1.029.263-1.542-.231-.525-.483-.67-1.17-.342-1.533.334-.362 1.039-.26 1.555.231.521.483.679 1.174.329 1.533zm0 0M36.233 98.06c-.146.47-.82.683-1.499.483-.679-.206-1.123-.757-.986-1.23.141-.474.819-.697 1.503-.483.678.205 1.123.75.982 1.23zm0 0M41.144 98.418c.017.495-.56.903-1.273.913-.717.016-1.298-.383-1.306-.87 0-.501.563-.906 1.281-.918.713-.014 1.298.385 1.298.875zm0 0M45.713 97.641c.085.482-.411.978-1.119 1.109-.697.128-1.341-.171-1.43-.647-.086-.495.418-.992 1.114-1.12.709-.123 1.345.166 1.435.658zm0 0"/></svg>