<svg xmlns="http://www.w3.org/2000/svg" xmlns:xlink="http://www.w3.org/1999/xlink" width="40" height="64" viewBox="0 0 40 64"><defs><path id="a" d="M0 59.776h3.802v3.605H0z"/></defs><clipPath id="b"><use xlink:href="#a" overflow="visible"/></clipPath><linearGradient id="c" gradientUnits="userSpaceOnUse" x1="-555.895" y1="434.81" x2="-554.895" y2="434.81" gradientTransform="scale(70.696 -70.696) rotate(37.535 363.188 1034.934)"><stop offset="0" stop-color="#ff1b5e"/><stop offset=".279" stop-color="#e61d87"/><stop offset=".905" stop-color="#a723ef"/><stop offset="1" stop-color="#9d24ff"/></linearGradient><path clip-path="url(#b)" fill="url(#c)" d="M-1.742 61.114l4.133-3.174 3.152 4.104-4.132 3.174z"/><defs><path id="d" d="M3.603 35.638c0-8.957 7.356-16.243 16.397-16.243 9.042 0 16.396 7.286 16.396 16.243 0 8.957-7.354 16.242-16.396 16.242-9.041 0-16.397-7.285-16.397-16.242m-3.603 0C0 46.562 8.973 55.45 20 55.45s20-8.889 20-19.812c0-10.924-8.973-19.812-20-19.812S0 24.714 0 35.638"/></defs><clipPath id="e"><use xlink:href="#d" overflow="visible"/></clipPath><linearGradient id="f" gradientUnits="userSpaceOnUse" x1="-555.886" y1="434.803" x2="-554.887" y2="434.803" gradientTransform="scale(70.604 -70.604) rotate(37.535 362.983 1034.85)"><stop offset="0" stop-color="#ff1b5e"/><stop offset=".279" stop-color="#e61d87"/><stop offset=".905" stop-color="#a723ef"/><stop offset="1" stop-color="#9d24ff"/></linearGradient><path clip-path="url(#e)" fill="url(#f)" d="M-19.143 30.534L25.152-3.499l33.991 44.243-44.296 34.03z"/><g><defs><path id="g" d="M7.371 59.776H40v3.605H7.371z"/></defs><clipPath id="h"><use xlink:href="#g" overflow="visible"/></clipPath><linearGradient id="i" gradientUnits="userSpaceOnUse" x1="-555.863" y1="434.756" x2="-554.865" y2="434.756" gradientTransform="scale(70.1544 -70.1544) rotate(37.535 363.412 1034.95)"><stop offset="0" stop-color="#ff1b5e"/><stop offset=".279" stop-color="#e61d87"/><stop offset=".905" stop-color="#a723ef"/><stop offset="1" stop-color="#9d24ff"/></linearGradient><path clip-path="url(#h)" fill="url(#i)" d="M5.629 61.114l22.26-17.101 13.853 18.031-22.26 17.102z"/></g><g><defs><path id="j" d="M8.953 27.997c-.884 0-1.6.733-1.6 1.636v12.375c0 .902.716 1.634 1.6 1.634h10.748v2.66h-3.7v.611h7.998v-.611H20.3v-2.66h10.748c.884 0 1.599-.732 1.599-1.634V29.633c0-.903-.715-1.636-1.599-1.636H8.953z"/></defs><clipPath id="k"><use xlink:href="#j" overflow="visible"/></clipPath><linearGradient id="l" gradientUnits="userSpaceOnUse" x1="-555.878" y1="434.779" x2="-554.88" y2="434.779" gradientTransform="scale(70.5186 -70.5186) rotate(37.535 362.981 1034.836)"><stop offset="0" stop-color="#ff1b5e"/><stop offset=".279" stop-color="#e61d87"/><stop offset=".905" stop-color="#a723ef"/><stop offset="1" stop-color="#9d24ff"/></linearGradient><path clip-path="url(#k)" fill="url(#l)" d="M-1.786 35.019l25.044-19.242 18.528 24.115-25.044 19.242z"/></g><g><path d="M9.488 3.549l-1.903 8.183H4.721L1.748.618h2.769l1.856 8.105L8.308.618h2.407l1.951 8.105L14.491.618h2.801l-3.021 11.114h-2.832L9.488 3.549zM20.878 5.045h5.475V7.04h-5.475v2.557h6.356v2.135h-8.999V.618h8.889v2.167h-6.246v2.26zM28.776.618h5.616c.912 0 1.631.141 2.155.421.472.26.821.608 1.046 1.044.227.437.329.899.307 1.388-.01.592-.199 1.086-.566 1.481s-.807.66-1.32.795v.078c.271.031.547.109.825.234.278.125.54.296.786.515.247.218.446.504.599.857.151.354.228.749.228 1.185 0 .717-.172 1.309-.519 1.777a3.22 3.22 0 0 1-1.385 1.06 5.521 5.521 0 0 1-1.03.21c-.394.047-.857.07-1.393.07h-5.349V.618zm2.643 2.058v2.369h2.187c.451 0 .797-.078 1.039-.233.356-.208.535-.53.535-.967 0-.52-.221-.857-.661-1.013-.199-.104-.551-.156-1.054-.156h-2.046zm0 4.364v2.666h2.422c.493 0 .86-.067 1.102-.203.461-.239.692-.628.692-1.169 0-.53-.231-.914-.692-1.153-.199-.094-.561-.141-1.085-.141h-2.439z"/></g></svg>