<svg xmlns="http://www.w3.org/2000/svg" xmlns:xlink="http://www.w3.org/1999/xlink" width="48" height="48" viewBox="-1.188 0 48 48"><defs><path id="a" d="M2.813 44.172h3.802v3.605H2.813z"/></defs><clipPath id="b"><use xlink:href="#a" overflow="visible"/></clipPath><linearGradient id="c" gradientUnits="userSpaceOnUse" x1="-594.021" y1="-337.037" x2="-593.021" y2="-337.037" gradientTransform="rotate(-37.535 14135.382 -73687.656) scale(70.6959)"><stop offset="0" stop-color="#ff1b5e"/><stop offset=".279" stop-color="#e61d87"/><stop offset=".905" stop-color="#a723ef"/><stop offset="1" stop-color="#9d24ff"/></linearGradient><path clip-path="url(#b)" fill="url(#c)" d="M1.07 45.51l4.134-3.174 3.151 4.104-4.131 3.175z"/><g><defs><path id="d" d="M6.416 20.035c0-8.958 7.356-16.244 16.397-16.244 9.042 0 16.396 7.286 16.396 16.244 0 8.957-7.354 16.241-16.396 16.241-9.042 0-16.397-7.284-16.397-16.241m-3.603 0c0 10.924 8.973 19.812 20 19.812s20-8.89 20-19.812c0-10.925-8.973-19.813-20-19.813-11.027.001-20 8.888-20 19.813"/></defs><clipPath id="e"><use xlink:href="#d" overflow="visible"/></clipPath><linearGradient id="f" gradientUnits="userSpaceOnUse" x1="-594.01" y1="-337.021" x2="-593.01" y2="-337.021" gradientTransform="rotate(-37.535 14101.806 -73585.384) scale(70.604)"><stop offset="0" stop-color="#ff1b5e"/><stop offset=".279" stop-color="#e61d87"/><stop offset=".905" stop-color="#a723ef"/><stop offset="1" stop-color="#9d24ff"/></linearGradient><path clip-path="url(#e)" fill="url(#f)" d="M-16.331 14.931l44.296-34.034 33.99 44.244L17.66 59.17z"/></g><g><defs><path id="g" d="M10.184 44.172h32.629v3.605H10.184z"/></defs><clipPath id="h"><use xlink:href="#g" overflow="visible"/></clipPath><linearGradient id="i" gradientUnits="userSpaceOnUse" x1="-593.972" y1="-336.934" x2="-592.972" y2="-336.934" gradientTransform="rotate(-37.535 14038.341 -73120.876) scale(70.1544)"><stop offset="0" stop-color="#ff1b5e"/><stop offset=".279" stop-color="#e61d87"/><stop offset=".905" stop-color="#a723ef"/><stop offset="1" stop-color="#9d24ff"/></linearGradient><path clip-path="url(#h)" fill="url(#i)" d="M8.441 45.51l22.26-17.1 13.854 18.03-22.26 17.103z"/></g><g><defs><path id="j" d="M11.766 12.394c-.884 0-1.6.733-1.6 1.636v12.375c0 .902.716 1.635 1.6 1.635h10.748v2.66h-3.7v.61h7.998v-.61h-3.699v-2.66H33.86c.884 0 1.599-.732 1.599-1.635V14.029c0-.903-.715-1.636-1.599-1.636H11.766z"/></defs><clipPath id="k"><use xlink:href="#j" overflow="visible"/></clipPath><linearGradient id="l" gradientUnits="userSpaceOnUse" x1="-593.999" y1="-336.988" x2="-593" y2="-336.988" gradientTransform="scale(70.5186) rotate(-37.535 199.72 -1042.204)"><stop offset="0" stop-color="#ff1b5e"/><stop offset=".279" stop-color="#e61d87"/><stop offset=".905" stop-color="#a723ef"/><stop offset="1" stop-color="#9d24ff"/></linearGradient><path clip-path="url(#k)" fill="url(#l)" d="M1.026 19.416L26.07.173l18.529 24.116L19.555 43.53z"/></g></svg>