<svg xmlns="http://www.w3.org/2000/svg" width="48" height="48" viewBox="0 0 48 48"><path d="M6.615 47.777v-3.603l-.001-.002H2.813v3.605h3.802zM42.813 20.035c0-10.925-8.973-19.813-20-19.813-11.027.001-20 8.888-20 19.813 0 10.924 8.973 19.813 20 19.813s20-8.891 20-19.813zm-36.397 0c0-8.958 7.356-16.244 16.397-16.244 9.042 0 16.396 7.286 16.396 16.244 0 8.957-7.354 16.24-16.396 16.24-9.042 0-16.397-7.283-16.397-16.24zM42.813 44.172H10.184v3.605h32.629z"/><path d="M18.814 30.7v.61h7.999v-.61h-3.7v-2.66H33.86c.885 0 1.6-.731 1.6-1.636V14.029c0-.903-.715-1.636-1.6-1.636H11.766v.001c-.884 0-1.6.733-1.6 1.636v12.375c0 .902.716 1.636 1.6 1.636h10.748v2.66h-3.7z"/></svg>